# Blender v2.79 (sub 0) OBJ File: ''
# www.blender.org
mtllib RadialJoint.mtl
o Cube.001
v 1.000000 1.915892 -0.188463
v 1.000000 -1.915892 -0.188464
v 1.000000 1.915891 0.188464
v 0.999999 -1.915893 0.188463
v 1.308266 1.915892 -0.188463
v 1.308266 -1.915892 -0.188463
v 1.308266 1.915891 0.188464
v 1.308265 -1.915893 0.188463
v 1.514770 1.915892 -0.188463
v 1.514770 -1.915892 -0.188463
v 1.514771 1.915891 0.188464
v 1.514769 -1.915893 0.188463
v 1.488979 1.915891 0.297261
v 1.488978 -1.915893 0.297261
v 1.695483 1.915891 0.297261
v 1.695482 -1.915893 0.297261
v 1.612528 1.915891 0.432572
v 1.612527 -1.915893 0.432572
v 1.819032 1.915891 0.432572
v 1.819031 -1.915893 0.432572
v 1.651212 1.915891 0.549394
v 1.651211 -1.915893 0.549394
v 1.857717 1.915891 0.549394
v 1.857715 -1.915893 0.549394
v -1.000000 1.915892 -0.188463
v -1.000000 -1.915892 -0.188464
v -1.000000 1.915891 0.188464
v -0.999999 -1.915893 0.188463
v -1.308266 1.915892 -0.188463
v -1.308266 -1.915892 -0.188463
v -1.308266 1.915891 0.188464
v -1.308265 -1.915893 0.188463
v -1.514770 1.915892 -0.188463
v -1.514770 -1.915892 -0.188463
v -1.514771 1.915891 0.188464
v -1.514769 -1.915893 0.188463
v -1.488979 1.915891 0.297261
v -1.488978 -1.915893 0.297261
v -1.695483 1.915891 0.297261
v -1.695482 -1.915893 0.297261
v -1.612528 1.915891 0.432572
v -1.612527 -1.915893 0.432572
v -1.819032 1.915891 0.432572
v -1.819031 -1.915893 0.432572
v -1.651212 1.915891 0.549394
v -1.651211 -1.915893 0.549394
v -1.857717 1.915891 0.549394
v -1.857715 -1.915893 0.549394
vn -0.0000 -0.0000 1.0000
vn -0.5158 0.0000 0.8567
vn 0.0000 -1.0000 -0.0000
vn -0.0000 1.0000 0.0000
vn 0.0000 0.0000 -1.0000
vn 1.0000 -0.0000 0.0000
vn 0.5158 -0.0000 -0.8567
vn -0.7385 0.0000 0.6743
vn 0.7385 -0.0000 -0.6743
vn 0.9493 -0.0000 -0.3144
vn -0.9493 0.0000 0.3144
vn 0.5158 0.0000 0.8567
vn -1.0000 -0.0000 0.0000
vn -0.5158 -0.0000 -0.8567
vn 0.7385 0.0000 0.6743
vn -0.7385 -0.0000 -0.6743
vn -0.9493 -0.0000 -0.3144
vn 0.9493 0.0000 0.3144
usemtl Material
s off
f 3//1 4//1 8//1 7//1
f 7//2 8//2 14//2 13//2
f 4//3 2//3 6//3 8//3
f 1//4 3//4 7//4 5//4
f 2//5 1//5 5//5 6//5
f 9//6 11//6 12//6 10//6
f 5//4 7//4 11//4 9//4
f 8//3 6//3 10//3 12//3
f 6//5 5//5 9//5 10//5
f 14//3 16//3 20//3 18//3
f 8//3 12//3 16//3 14//3
f 11//4 7//4 13//4 15//4
f 12//7 11//7 15//7 16//7
f 19//4 17//4 21//4 23//4
f 13//8 14//8 18//8 17//8
f 15//4 13//4 17//4 19//4
f 16//9 15//9 19//9 20//9
f 21//1 22//1 24//1 23//1
f 20//10 19//10 23//10 24//10
f 18//3 20//3 24//3 22//3
f 17//11 18//11 22//11 21//11
f 27//1 31//1 32//1 28//1
f 31//12 37//12 38//12 32//12
f 28//3 32//3 30//3 26//3
f 25//4 29//4 31//4 27//4
f 26//5 30//5 29//5 25//5
f 33//13 34//13 36//13 35//13
f 29//4 33//4 35//4 31//4
f 32//3 36//3 34//3 30//3
f 30//5 34//5 33//5 29//5
f 38//3 42//3 44//3 40//3
f 32//3 38//3 40//3 36//3
f 35//4 39//4 37//4 31//4
f 36//14 40//14 39//14 35//14
f 43//4 47//4 45//4 41//4
f 37//15 41//15 42//15 38//15
f 39//4 43//4 41//4 37//4
f 40//16 44//16 43//16 39//16
f 45//1 47//1 48//1 46//1
f 44//17 48//17 47//17 43//17
f 42//3 46//3 48//3 44//3
f 41//18 45//18 46//18 42//18
o Cube
v 1.000000 1.915892 -0.188463
v 1.000000 -1.915892 -0.188464
v -1.000000 -1.915891 -0.188464
v -1.000000 1.915892 -0.188463
v 1.000000 1.915891 0.188464
v 0.999999 -1.915893 0.188463
v -1.000000 -1.915891 0.188463
v -1.000000 1.915892 0.188464
v 0.333333 1.915892 -0.188463
v -0.333333 1.915892 -0.188463
v 0.333333 -1.915892 -0.188464
v -0.333333 -1.915891 -0.188464
v 0.333334 1.915891 0.188464
v -0.333333 1.915891 0.188464
v 0.333333 -1.915892 0.188463
v -0.333334 -1.915892 0.188463
v 1.000000 0.638630 -0.188463
v 1.000000 -0.638631 -0.188463
v -1.000000 -0.638630 -0.188463
v -1.000000 0.638631 -0.188463
v 1.000000 0.638629 0.188463
v 1.000000 -0.638632 0.188463
v -1.000000 -0.638630 0.188463
v -1.000000 0.638631 0.188463
v 0.333333 0.638630 0.188463
v 0.333333 -0.638631 0.188463
v -0.333333 0.638630 0.188463
v -0.333334 -0.638631 0.188463
v 0.333333 -0.638630 -0.188463
v 0.333333 0.638631 -0.188463
v -0.333333 -0.638630 -0.188463
v -0.333333 0.638631 -0.188463
v 0.333333 -0.638630 -0.370341
v 0.333333 0.638631 -0.370341
v -0.333333 -0.638630 -0.370341
v -0.333333 0.638631 -0.370341
vn 0.0000 0.0000 -1.0000
vn -0.0000 -0.0000 1.0000
vn -0.0000 -1.0000 0.0000
vn -1.0000 0.0000 -0.0000
vn 0.0000 1.0000 0.0000
vn 1.0000 -0.0000 0.0000
usemtl Material
s off
f 79//19 60//19 51//19 67//19
f 76//20 71//20 55//20 64//20
f 60//21 64//21 55//21 51//21
f 68//22 72//22 56//22 52//22
f 62//23 58//23 52//23 56//23
f 53//23 49//23 57//23 61//23
f 61//23 57//23 58//23 62//23
f 50//21 54//21 63//21 59//21
f 59//21 63//21 64//21 60//21
f 70//20 74//20 63//20 54//20
f 74//20 76//20 64//20 63//20
f 66//19 50//19 59//19 77//19
f 77//19 59//19 60//19 79//19
f 57//19 78//19 80//19 58//19
f 79//22 80//22 84//22 83//22
f 49//19 65//19 78//19 57//19
f 65//19 66//19 77//19 78//19
f 61//20 62//20 75//20 73//20
f 73//20 75//20 76//20 74//20
f 53//20 61//20 73//20 69//20
f 69//20 73//20 74//20 70//20
f 51//22 55//22 71//22 67//22
f 67//22 71//22 72//22 68//22
f 62//20 56//20 72//20 75//20
f 75//20 72//20 71//20 76//20
f 58//19 80//19 68//19 52//19
f 80//19 79//19 67//19 68//19
f 82//19 81//19 83//19 84//19
f 78//24 77//24 81//24 82//24
f 80//23 78//23 82//23 84//23
f 77//21 79//21 83//21 81//21
